#N canvas 456 265 600 400 12;
#X obj 150 200 osc~ 600;
#X obj 150 240 *~;
#X obj 150 280 dac~;
#X msg 50 50 1;
#X msg 100 50 0;
#X obj 150 160 vline~;
#X msg 50 20 1 100 0 200;
#X obj 150 100 pack 0 100;
#X obj 50 80 r shoot;
#X text 340 180 This plays a quick 600 Hz tone for 100ms;
#X text 340 160 when you click the top-left message.;
#X text 340 200 The "r shoot" will receive bangs from your game;
#X connect 0 0 1 0;
#X connect 1 0 2 0;
#X connect 1 0 2 1;
#X connect 3 0 1 1;
#X connect 4 0 1 1;
#X connect 5 0 1 1;
#X connect 6 0 7 0;
#X connect 7 0 5 0;
#X connect 8 0 7 0;